<?xml version="1.0" encoding="utf-8" standalone="no"?>
<!DOCTYPE svg PUBLIC "-//W3C//DTD SVG 1.1//EN"
  "http://www.w3.org/Graphics/SVG/1.1/DTD/svg11.dtd">
<svg xmlns:xlink="http://www.w3.org/1999/xlink" width="864pt" height="720pt" viewBox="0 0 864 720" xmlns="http://www.w3.org/2000/svg" version="1.1">
 <metadata>
  <rdf:RDF xmlns:dc="http://purl.org/dc/elements/1.1/" xmlns:cc="http://creativecommons.org/ns#" xmlns:rdf="http://www.w3.org/1999/02/22-rdf-syntax-ns#">
   <cc:Work>
    <dc:type rdf:resource="http://purl.org/dc/dcmitype/StillImage"/>
    <dc:date>2026-05-07T22:41:29.814425</dc:date>
    <dc:format>image/svg+xml</dc:format>
    <dc:creator>
     <cc:Agent>
      <dc:title>Matplotlib v3.10.9, https://matplotlib.org/</dc:title>
     </cc:Agent>
    </dc:creator>
   </cc:Work>
  </rdf:RDF>
 </metadata>
 <defs>
  <style type="text/css">*{stroke-linejoin: round; stroke-linecap: butt}</style>
 </defs>
 <g id="figure_1">
  <g id="patch_1">
   <path d="M 0 720 
L 864 720 
L 864 0 
L 0 0 
z
" style="fill: #ffffff"/>
  </g>
  <g id="axes_1">
   <g id="patch_2">
    <path d="M 364.269665 432.684887 
Q 336.923399 497.232697 310.013273 560.751049 
" clip-path="url(#pf3e7aa6eff)" style="fill: none; stroke: #000000; stroke-linecap: round"/>
    <path d="M 313.4152 557.848139 
L 310.013273 560.751049 
L 309.732101 556.287761 
z
" clip-path="url(#pf3e7aa6eff)" style="stroke: #000000; stroke-linecap: round"/>
   </g>
   <g id="patch_3">
    <path d="M 364.269665 432.684887 
Q 336.923399 497.232697 310.013273 560.751049 
" clip-path="url(#pf3e7aa6eff)" style="fill: none; stroke: #000000; stroke-linecap: round"/>
    <path d="M 313.4152 557.848139 
L 310.013273 560.751049 
L 309.732101 556.287761 
z
" clip-path="url(#pf3e7aa6eff)" style="stroke: #000000; stroke-linecap: round"/>
   </g>
   <g id="patch_4">
    <path d="M 356.693714 427.404153 
Q 270.421161 508.439198 184.963527 588.708797 
" clip-path="url(#pf3e7aa6eff)" style="fill: none; stroke: #000000; stroke-linecap: round"/>
    <path d="M 189.24834 587.428025 
L 184.963527 588.708797 
L 186.509797 584.512483 
z
" clip-path="url(#pf3e7aa6eff)" style="stroke: #000000; stroke-linecap: round"/>
   </g>
   <g id="patch_5">
    <path d="M 356.693714 427.404153 
Q 270.421161 508.439198 184.963527 588.708797 
" clip-path="url(#pf3e7aa6eff)" style="fill: none; stroke: #000000; stroke-linecap: round"/>
    <path d="M 189.24834 587.428025 
L 184.963527 588.708797 
L 186.509797 584.512483 
z
" clip-path="url(#pf3e7aa6eff)" style="stroke: #000000; stroke-linecap: round"/>
   </g>
   <g id="patch_6">
    <path d="M 356.693714 427.404153 
Q 270.421161 508.439198 184.963527 588.708797 
" clip-path="url(#pf3e7aa6eff)" style="fill: none; stroke: #000000; stroke-linecap: round"/>
    <path d="M 189.24834 587.428025 
L 184.963527 588.708797 
L 186.509797 584.512483 
z
" clip-path="url(#pf3e7aa6eff)" style="stroke: #000000; stroke-linecap: round"/>
   </g>
   <g id="patch_7">
    <path d="M 387.703668 395.256799 
Q 500.49842 266.153802 612.55757 137.892763 
" clip-path="url(#pf3e7aa6eff)" style="fill: none; stroke: #000000; stroke-linecap: round"/>
    <path d="M 608.419666 139.589156 
L 612.55757 137.892763 
L 611.431942 142.220922 
z
" clip-path="url(#pf3e7aa6eff)" style="stroke: #000000; stroke-linecap: round"/>
   </g>
   <g id="patch_8">
    <path d="M 387.703668 395.256799 
Q 500.49842 266.153802 612.55757 137.892763 
" clip-path="url(#pf3e7aa6eff)" style="fill: none; stroke: #000000; stroke-linecap: round"/>
    <path d="M 608.419666 139.589156 
L 612.55757 137.892763 
L 611.431942 142.220922 
z
" clip-path="url(#pf3e7aa6eff)" style="stroke: #000000; stroke-linecap: round"/>
   </g>
   <g id="patch_9">
    <path d="M 225.614166 203.199861 
Q 294.478942 140.375285 362.517755 78.304226 
" clip-path="url(#pf3e7aa6eff)" style="fill: none; stroke: #000000; stroke-linecap: round"/>
    <path d="M 358.214773 79.522561 
L 362.517755 78.304226 
L 360.910634 82.477613 
z
" clip-path="url(#pf3e7aa6eff)" style="stroke: #000000; stroke-linecap: round"/>
   </g>
   <g id="patch_10">
    <path d="M 191.105554 231.545486 
Q 142.036867 267.756649 93.867776 303.303939 
" clip-path="url(#pf3e7aa6eff)" style="fill: none; stroke: #000000; stroke-linecap: round"/>
    <path d="M 98.27384 302.538038 
L 93.867776 303.303939 
L 95.898694 299.319548 
z
" clip-path="url(#pf3e7aa6eff)" style="stroke: #000000; stroke-linecap: round"/>
   </g>
   <g id="patch_11">
    <path d="M 191.105554 231.545486 
Q 142.036867 267.756649 93.867776 303.303939 
" clip-path="url(#pf3e7aa6eff)" style="fill: none; stroke: #000000; stroke-linecap: round"/>
    <path d="M 98.27384 302.538038 
L 93.867776 303.303939 
L 95.898694 299.319548 
z
" clip-path="url(#pf3e7aa6eff)" style="stroke: #000000; stroke-linecap: round"/>
   </g>
   <g id="patch_12">
    <path d="M 683.556112 478.935395 
Q 730.367335 404.002216 776.5862 330.017253 
" clip-path="url(#pf3e7aa6eff)" style="fill: none; stroke: #000000; stroke-linecap: round"/>
    <path d="M 772.770701 332.350055 
L 776.5862 330.017253 
L 776.163142 334.469334 
z
" clip-path="url(#pf3e7aa6eff)" style="stroke: #000000; stroke-linecap: round"/>
   </g>
   <g id="patch_13">
    <path d="M 673.476533 520.197737 
Q 678.04073 577.713865 682.516482 634.115462 
" clip-path="url(#pf3e7aa6eff)" style="fill: none; stroke: #000000; stroke-linecap: round"/>
    <path d="M 684.193789 629.969785 
L 682.516482 634.115462 
L 680.206324 630.28621 
z
" clip-path="url(#pf3e7aa6eff)" style="stroke: #000000; stroke-linecap: round"/>
   </g>
   <g id="patch_14">
    <path d="M 673.476533 520.197737 
Q 678.04073 577.713865 682.516482 634.115462 
" clip-path="url(#pf3e7aa6eff)" style="fill: none; stroke: #000000; stroke-linecap: round"/>
    <path d="M 684.193789 629.969785 
L 682.516482 634.115462 
L 680.206324 630.28621 
z
" clip-path="url(#pf3e7aa6eff)" style="stroke: #000000; stroke-linecap: round"/>
   </g>
   <g id="patch_15">
    <path d="M 269.355023 190.066101 
Q 317.290464 134.72289 364.493919 80.224782 
" clip-path="url(#pf3e7aa6eff)" style="fill: none; stroke: #000000; stroke-linecap: round"/>
    <path d="M 360.363326 81.9389 
L 364.493919 80.224782 
L 363.386858 84.557727 
z
" clip-path="url(#pf3e7aa6eff)" style="stroke: #000000; stroke-linecap: round"/>
   </g>
   <g id="patch_16">
    <path d="M 235.655516 218.662876 
Q 164.844231 262.108165 94.985915 304.968773 
" clip-path="url(#pf3e7aa6eff)" style="fill: none; stroke: #000000; stroke-linecap: round"/>
    <path d="M 99.441266 304.581677 
L 94.985915 304.968773 
L 97.34945 301.172234 
z
" clip-path="url(#pf3e7aa6eff)" style="stroke: #000000; stroke-linecap: round"/>
   </g>
   <g id="text_1">
    <g id="patch_17">
     <path d="M 335.483294 520.727189 
L 352.799837 479.853421 
Q 353.970121 477.091097 351.207797 475.920813 
L 342.296423 472.145429 
Q 339.534099 470.975145 338.363815 473.737469 
L 321.047272 514.611238 
Q 319.876988 517.373562 322.639313 518.543846 
L 331.550686 522.31923 
Q 334.313011 523.489514 335.483294 520.727189 
z
" clip-path="url(#pf3e7aa6eff)" style="fill: #ffffff; stroke: #ffffff; stroke-linejoin: miter"/>
    </g>
    <g clip-path="url(#pf3e7aa6eff)">
     <!-- Diabetes -->
     <g transform="translate(330.806046 518.745631) rotate(-67.039614) scale(0.1 -0.1)">
      <defs>
       <path id="DejaVuSans-44" d="M 1259 4147 
L 1259 519 
L 2022 519 
Q 2988 519 3436 956 
Q 3884 1394 3884 2338 
Q 3884 3275 3436 3711 
Q 2988 4147 2022 4147 
L 1259 4147 
z
M 628 4666 
L 1925 4666 
Q 3281 4666 3915 4102 
Q 4550 3538 4550 2338 
Q 4550 1131 3912 565 
Q 3275 0 1925 0 
L 628 0 
L 628 4666 
z
" transform="scale(0.015625)"/>
       <path id="DejaVuSans-69" d="M 603 3500 
L 1178 3500 
L 1178 0 
L 603 0 
L 603 3500 
z
M 603 4863 
L 1178 4863 
L 1178 4134 
L 603 4134 
L 603 4863 
z
" transform="scale(0.015625)"/>
       <path id="DejaVuSans-61" d="M 2194 1759 
Q 1497 1759 1228 1600 
Q 959 1441 959 1056 
Q 959 750 1161 570 
Q 1363 391 1709 391 
Q 2188 391 2477 730 
Q 2766 1069 2766 1631 
L 2766 1759 
L 2194 1759 
z
M 3341 1997 
L 3341 0 
L 2766 0 
L 2766 531 
Q 2569 213 2275 61 
Q 1981 -91 1556 -91 
Q 1019 -91 701 211 
Q 384 513 384 1019 
Q 384 1609 779 1909 
Q 1175 2209 1959 2209 
L 2766 2209 
L 2766 2266 
Q 2766 2663 2505 2880 
Q 2244 3097 1772 3097 
Q 1472 3097 1187 3025 
Q 903 2953 641 2809 
L 641 3341 
Q 956 3463 1253 3523 
Q 1550 3584 1831 3584 
Q 2591 3584 2966 3190 
Q 3341 2797 3341 1997 
z
" transform="scale(0.015625)"/>
       <path id="DejaVuSans-62" d="M 3116 1747 
Q 3116 2381 2855 2742 
Q 2594 3103 2138 3103 
Q 1681 3103 1420 2742 
Q 1159 2381 1159 1747 
Q 1159 1113 1420 752 
Q 1681 391 2138 391 
Q 2594 391 2855 752 
Q 3116 1113 3116 1747 
z
M 1159 2969 
Q 1341 3281 1617 3432 
Q 1894 3584 2278 3584 
Q 2916 3584 3314 3078 
Q 3713 2572 3713 1747 
Q 3713 922 3314 415 
Q 2916 -91 2278 -91 
Q 1894 -91 1617 61 
Q 1341 213 1159 525 
L 1159 0 
L 581 0 
L 581 4863 
L 1159 4863 
L 1159 2969 
z
" transform="scale(0.015625)"/>
       <path id="DejaVuSans-65" d="M 3597 1894 
L 3597 1613 
L 953 1613 
Q 991 1019 1311 708 
Q 1631 397 2203 397 
Q 2534 397 2845 478 
Q 3156 559 3463 722 
L 3463 178 
Q 3153 47 2828 -22 
Q 2503 -91 2169 -91 
Q 1331 -91 842 396 
Q 353 884 353 1716 
Q 353 2575 817 3079 
Q 1281 3584 2069 3584 
Q 2775 3584 3186 3129 
Q 3597 2675 3597 1894 
z
M 3022 2063 
Q 3016 2534 2758 2815 
Q 2500 3097 2075 3097 
Q 1594 3097 1305 2825 
Q 1016 2553 972 2059 
L 3022 2063 
z
" transform="scale(0.015625)"/>
       <path id="DejaVuSans-74" d="M 1172 4494 
L 1172 3500 
L 2356 3500 
L 2356 3053 
L 1172 3053 
L 1172 1153 
Q 1172 725 1289 603 
Q 1406 481 1766 481 
L 2356 481 
L 2356 0 
L 1766 0 
Q 1100 0 847 248 
Q 594 497 594 1153 
L 594 3053 
L 172 3053 
L 172 3500 
L 594 3500 
L 594 4494 
L 1172 4494 
z
" transform="scale(0.015625)"/>
       <path id="DejaVuSans-73" d="M 2834 3397 
L 2834 2853 
Q 2591 2978 2328 3040 
Q 2066 3103 1784 3103 
Q 1356 3103 1142 2972 
Q 928 2841 928 2578 
Q 928 2378 1081 2264 
Q 1234 2150 1697 2047 
L 1894 2003 
Q 2506 1872 2764 1633 
Q 3022 1394 3022 966 
Q 3022 478 2636 193 
Q 2250 -91 1575 -91 
Q 1294 -91 989 -36 
Q 684 19 347 128 
L 347 722 
Q 666 556 975 473 
Q 1284 391 1588 391 
Q 1994 391 2212 530 
Q 2431 669 2431 922 
Q 2431 1156 2273 1281 
Q 2116 1406 1581 1522 
L 1381 1569 
Q 847 1681 609 1914 
Q 372 2147 372 2553 
Q 372 3047 722 3315 
Q 1072 3584 1716 3584 
Q 2034 3584 2315 3537 
Q 2597 3491 2834 3397 
z
" transform="scale(0.015625)"/>
      </defs>
      <use xlink:href="#DejaVuSans-44"/>
      <use xlink:href="#DejaVuSans-69" transform="translate(77.001953 0)"/>
      <use xlink:href="#DejaVuSans-61" transform="translate(104.785156 0)"/>
      <use xlink:href="#DejaVuSans-62" transform="translate(166.064453 0)"/>
      <use xlink:href="#DejaVuSans-65" transform="translate(229.541016 0)"/>
      <use xlink:href="#DejaVuSans-74" transform="translate(291.064453 0)"/>
      <use xlink:href="#DejaVuSans-65" transform="translate(330.273438 0)"/>
      <use xlink:href="#DejaVuSans-73" transform="translate(391.796875 0)"/>
     </g>
    </g>
   </g>
   <g id="text_2">
    <g id="patch_18">
     <path d="M 331.091683 531.093099 
L 357.191449 469.487511 
Q 358.361733 466.725187 355.599409 465.554903 
L 346.688035 461.779519 
Q 343.925711 460.609235 342.755427 463.371559 
L 316.65566 524.977147 
Q 315.485377 527.739472 318.247701 528.909756 
L 327.159074 532.68514 
Q 329.921399 533.855424 331.091683 531.093099 
z
" clip-path="url(#pf3e7aa6eff)" style="fill: #ffffff; stroke: #ffffff; stroke-linejoin: miter"/>
    </g>
    <g clip-path="url(#pf3e7aa6eff)">
     <!-- Hypertension -->
     <g transform="translate(326.414434 529.111541) rotate(-67.039614) scale(0.1 -0.1)">
      <defs>
       <path id="DejaVuSans-48" d="M 628 4666 
L 1259 4666 
L 1259 2753 
L 3553 2753 
L 3553 4666 
L 4184 4666 
L 4184 0 
L 3553 0 
L 3553 2222 
L 1259 2222 
L 1259 0 
L 628 0 
L 628 4666 
z
" transform="scale(0.015625)"/>
       <path id="DejaVuSans-79" d="M 2059 -325 
Q 1816 -950 1584 -1140 
Q 1353 -1331 966 -1331 
L 506 -1331 
L 506 -850 
L 844 -850 
Q 1081 -850 1212 -737 
Q 1344 -625 1503 -206 
L 1606 56 
L 191 3500 
L 800 3500 
L 1894 763 
L 2988 3500 
L 3597 3500 
L 2059 -325 
z
" transform="scale(0.015625)"/>
       <path id="DejaVuSans-70" d="M 1159 525 
L 1159 -1331 
L 581 -1331 
L 581 3500 
L 1159 3500 
L 1159 2969 
Q 1341 3281 1617 3432 
Q 1894 3584 2278 3584 
Q 2916 3584 3314 3078 
Q 3713 2572 3713 1747 
Q 3713 922 3314 415 
Q 2916 -91 2278 -91 
Q 1894 -91 1617 61 
Q 1341 213 1159 525 
z
M 3116 1747 
Q 3116 2381 2855 2742 
Q 2594 3103 2138 3103 
Q 1681 3103 1420 2742 
Q 1159 2381 1159 1747 
Q 1159 1113 1420 752 
Q 1681 391 2138 391 
Q 2594 391 2855 752 
Q 3116 1113 3116 1747 
z
" transform="scale(0.015625)"/>
       <path id="DejaVuSans-72" d="M 2631 2963 
Q 2534 3019 2420 3045 
Q 2306 3072 2169 3072 
Q 1681 3072 1420 2755 
Q 1159 2438 1159 1844 
L 1159 0 
L 581 0 
L 581 3500 
L 1159 3500 
L 1159 2956 
Q 1341 3275 1631 3429 
Q 1922 3584 2338 3584 
Q 2397 3584 2469 3576 
Q 2541 3569 2628 3553 
L 2631 2963 
z
" transform="scale(0.015625)"/>
       <path id="DejaVuSans-6e" d="M 3513 2113 
L 3513 0 
L 2938 0 
L 2938 2094 
Q 2938 2591 2744 2837 
Q 2550 3084 2163 3084 
Q 1697 3084 1428 2787 
Q 1159 2491 1159 1978 
L 1159 0 
L 581 0 
L 581 3500 
L 1159 3500 
L 1159 2956 
Q 1366 3272 1645 3428 
Q 1925 3584 2291 3584 
Q 2894 3584 3203 3211 
Q 3513 2838 3513 2113 
z
" transform="scale(0.015625)"/>
       <path id="DejaVuSans-6f" d="M 1959 3097 
Q 1497 3097 1228 2736 
Q 959 2375 959 1747 
Q 959 1119 1226 758 
Q 1494 397 1959 397 
Q 2419 397 2687 759 
Q 2956 1122 2956 1747 
Q 2956 2369 2687 2733 
Q 2419 3097 1959 3097 
z
M 1959 3584 
Q 2709 3584 3137 3096 
Q 3566 2609 3566 1747 
Q 3566 888 3137 398 
Q 2709 -91 1959 -91 
Q 1206 -91 779 398 
Q 353 888 353 1747 
Q 353 2609 779 3096 
Q 1206 3584 1959 3584 
z
" transform="scale(0.015625)"/>
      </defs>
      <use xlink:href="#DejaVuSans-48"/>
      <use xlink:href="#DejaVuSans-79" transform="translate(75.195312 0)"/>
      <use xlink:href="#DejaVuSans-70" transform="translate(134.375 0)"/>
      <use xlink:href="#DejaVuSans-65" transform="translate(197.851562 0)"/>
      <use xlink:href="#DejaVuSans-72" transform="translate(259.375 0)"/>
      <use xlink:href="#DejaVuSans-74" transform="translate(300.488281 0)"/>
      <use xlink:href="#DejaVuSans-65" transform="translate(339.697266 0)"/>
      <use xlink:href="#DejaVuSans-6e" transform="translate(401.220703 0)"/>
      <use xlink:href="#DejaVuSans-73" transform="translate(464.599609 0)"/>
      <use xlink:href="#DejaVuSans-69" transform="translate(516.699219 0)"/>
      <use xlink:href="#DejaVuSans-6f" transform="translate(544.482422 0)"/>
      <use xlink:href="#DejaVuSans-6e" transform="translate(605.664062 0)"/>
     </g>
    </g>
   </g>
   <g id="text_3">
    <g id="patch_19">
     <path d="M 262.96389 526.198609 
L 288.610408 502.109061 
Q 290.797064 500.055154 288.743157 497.868498 
L 282.117168 490.814253 
Q 280.063261 488.627597 277.876605 490.681504 
L 252.230086 514.771051 
Q 250.04343 516.824958 252.097337 519.011615 
L 258.723326 526.065859 
Q 260.777233 528.252516 262.96389 526.198609 
z
" clip-path="url(#pf3e7aa6eff)" style="fill: #ffffff; stroke: #ffffff; stroke-linejoin: miter"/>
    </g>
    <g clip-path="url(#pf3e7aa6eff)">
     <!-- fatigue -->
     <g transform="translate(259.486154 522.496098) rotate(-43.20696) scale(0.1 -0.1)">
      <defs>
       <path id="DejaVuSans-66" d="M 2375 4863 
L 2375 4384 
L 1825 4384 
Q 1516 4384 1395 4259 
Q 1275 4134 1275 3809 
L 1275 3500 
L 2222 3500 
L 2222 3053 
L 1275 3053 
L 1275 0 
L 697 0 
L 697 3053 
L 147 3053 
L 147 3500 
L 697 3500 
L 697 3744 
Q 697 4328 969 4595 
Q 1241 4863 1831 4863 
L 2375 4863 
z
" transform="scale(0.015625)"/>
       <path id="DejaVuSans-67" d="M 2906 1791 
Q 2906 2416 2648 2759 
Q 2391 3103 1925 3103 
Q 1463 3103 1205 2759 
Q 947 2416 947 1791 
Q 947 1169 1205 825 
Q 1463 481 1925 481 
Q 2391 481 2648 825 
Q 2906 1169 2906 1791 
z
M 3481 434 
Q 3481 -459 3084 -895 
Q 2688 -1331 1869 -1331 
Q 1566 -1331 1297 -1286 
Q 1028 -1241 775 -1147 
L 775 -588 
Q 1028 -725 1275 -790 
Q 1522 -856 1778 -856 
Q 2344 -856 2625 -561 
Q 2906 -266 2906 331 
L 2906 616 
Q 2728 306 2450 153 
Q 2172 0 1784 0 
Q 1141 0 747 490 
Q 353 981 353 1791 
Q 353 2603 747 3093 
Q 1141 3584 1784 3584 
Q 2172 3584 2450 3431 
Q 2728 3278 2906 2969 
L 2906 3500 
L 3481 3500 
L 3481 434 
z
" transform="scale(0.015625)"/>
       <path id="DejaVuSans-75" d="M 544 1381 
L 544 3500 
L 1119 3500 
L 1119 1403 
Q 1119 906 1312 657 
Q 1506 409 1894 409 
Q 2359 409 2629 706 
Q 2900 1003 2900 1516 
L 2900 3500 
L 3475 3500 
L 3475 0 
L 2900 0 
L 2900 538 
Q 2691 219 2414 64 
Q 2138 -91 1772 -91 
Q 1169 -91 856 284 
Q 544 659 544 1381 
z
M 1991 3584 
L 1991 3584 
z
" transform="scale(0.015625)"/>
      </defs>
      <use xlink:href="#DejaVuSans-66"/>
      <use xlink:href="#DejaVuSans-61" transform="translate(35.205078 0)"/>
      <use xlink:href="#DejaVuSans-74" transform="translate(96.484375 0)"/>
      <use xlink:href="#DejaVuSans-69" transform="translate(135.693359 0)"/>
      <use xlink:href="#DejaVuSans-67" transform="translate(163.476562 0)"/>
      <use xlink:href="#DejaVuSans-75" transform="translate(226.953125 0)"/>
      <use xlink:href="#DejaVuSans-65" transform="translate(290.332031 0)"/>
     </g>
    </g>
   </g>
   <g id="text_4">
    <g id="patch_20">
     <path d="M 256.000186 532.739554 
L 295.574111 495.568116 
Q 297.760768 493.514209 295.706861 491.327553 
L 289.080871 484.273308 
Q 287.026964 482.086652 284.840308 484.140559 
L 245.266383 521.311996 
Q 243.079726 523.365903 245.133633 525.55256 
L 251.759623 532.606804 
Q 253.81353 534.793461 256.000186 532.739554 
z
" clip-path="url(#pf3e7aa6eff)" style="fill: #ffffff; stroke: #ffffff; stroke-linejoin: miter"/>
    </g>
    <g clip-path="url(#pf3e7aa6eff)">
     <!-- headaches -->
     <g transform="translate(252.522451 529.037043) rotate(-43.20696) scale(0.1 -0.1)">
      <defs>
       <path id="DejaVuSans-68" d="M 3513 2113 
L 3513 0 
L 2938 0 
L 2938 2094 
Q 2938 2591 2744 2837 
Q 2550 3084 2163 3084 
Q 1697 3084 1428 2787 
Q 1159 2491 1159 1978 
L 1159 0 
L 581 0 
L 581 4863 
L 1159 4863 
L 1159 2956 
Q 1366 3272 1645 3428 
Q 1925 3584 2291 3584 
Q 2894 3584 3203 3211 
Q 3513 2838 3513 2113 
z
" transform="scale(0.015625)"/>
       <path id="DejaVuSans-64" d="M 2906 2969 
L 2906 4863 
L 3481 4863 
L 3481 0 
L 2906 0 
L 2906 525 
Q 2725 213 2448 61 
Q 2172 -91 1784 -91 
Q 1150 -91 751 415 
Q 353 922 353 1747 
Q 353 2572 751 3078 
Q 1150 3584 1784 3584 
Q 2172 3584 2448 3432 
Q 2725 3281 2906 2969 
z
M 947 1747 
Q 947 1113 1208 752 
Q 1469 391 1925 391 
Q 2381 391 2643 752 
Q 2906 1113 2906 1747 
Q 2906 2381 2643 2742 
Q 2381 3103 1925 3103 
Q 1469 3103 1208 2742 
Q 947 2381 947 1747 
z
" transform="scale(0.015625)"/>
       <path id="DejaVuSans-63" d="M 3122 3366 
L 3122 2828 
Q 2878 2963 2633 3030 
Q 2388 3097 2138 3097 
Q 1578 3097 1268 2742 
Q 959 2388 959 1747 
Q 959 1106 1268 751 
Q 1578 397 2138 397 
Q 2388 397 2633 464 
Q 2878 531 3122 666 
L 3122 134 
Q 2881 22 2623 -34 
Q 2366 -91 2075 -91 
Q 1284 -91 818 406 
Q 353 903 353 1747 
Q 353 2603 823 3093 
Q 1294 3584 2113 3584 
Q 2378 3584 2631 3529 
Q 2884 3475 3122 3366 
z
" transform="scale(0.015625)"/>
      </defs>
      <use xlink:href="#DejaVuSans-68"/>
      <use xlink:href="#DejaVuSans-65" transform="translate(63.378906 0)"/>
      <use xlink:href="#DejaVuSans-61" transform="translate(124.902344 0)"/>
      <use xlink:href="#DejaVuSans-64" transform="translate(186.181641 0)"/>
      <use xlink:href="#DejaVuSans-61" transform="translate(249.658203 0)"/>
      <use xlink:href="#DejaVuSans-63" transform="translate(310.9375 0)"/>
      <use xlink:href="#DejaVuSans-68" transform="translate(365.917969 0)"/>
      <use xlink:href="#DejaVuSans-65" transform="translate(429.296875 0)"/>
      <use xlink:href="#DejaVuSans-73" transform="translate(490.820312 0)"/>
     </g>
    </g>
   </g>
   <g id="text_5">
    <g id="patch_21">
     <path d="M 242.739026 545.195644 
L 308.835271 483.112026 
Q 311.021928 481.058119 308.968021 478.871463 
L 302.342031 471.817218 
Q 300.288124 469.630562 298.101468 471.684469 
L 232.005223 533.768086 
Q 229.818567 535.821993 231.872474 538.00865 
L 238.498463 545.062894 
Q 240.55237 547.249551 242.739026 545.195644 
z
" clip-path="url(#pf3e7aa6eff)" style="fill: #ffffff; stroke: #ffffff; stroke-linejoin: miter"/>
    </g>
    <g clip-path="url(#pf3e7aa6eff)">
     <!-- frequent urination -->
     <g transform="translate(239.261291 541.493133) rotate(-43.20696) scale(0.1 -0.1)">
      <defs>
       <path id="DejaVuSans-71" d="M 947 1747 
Q 947 1113 1208 752 
Q 1469 391 1925 391 
Q 2381 391 2643 752 
Q 2906 1113 2906 1747 
Q 2906 2381 2643 2742 
Q 2381 3103 1925 3103 
Q 1469 3103 1208 2742 
Q 947 2381 947 1747 
z
M 2906 525 
Q 2725 213 2448 61 
Q 2172 -91 1784 -91 
Q 1150 -91 751 415 
Q 353 922 353 1747 
Q 353 2572 751 3078 
Q 1150 3584 1784 3584 
Q 2172 3584 2448 3432 
Q 2725 3281 2906 2969 
L 2906 3500 
L 3481 3500 
L 3481 -1331 
L 2906 -1331 
L 2906 525 
z
" transform="scale(0.015625)"/>
       <path id="DejaVuSans-20" transform="scale(0.015625)"/>
      </defs>
      <use xlink:href="#DejaVuSans-66"/>
      <use xlink:href="#DejaVuSans-72" transform="translate(35.205078 0)"/>
      <use xlink:href="#DejaVuSans-65" transform="translate(74.068359 0)"/>
      <use xlink:href="#DejaVuSans-71" transform="translate(135.591797 0)"/>
      <use xlink:href="#DejaVuSans-75" transform="translate(199.068359 0)"/>
      <use xlink:href="#DejaVuSans-65" transform="translate(262.447266 0)"/>
      <use xlink:href="#DejaVuSans-6e" transform="translate(323.970703 0)"/>
      <use xlink:href="#DejaVuSans-74" transform="translate(387.349609 0)"/>
      <use xlink:href="#DejaVuSans-20" transform="translate(426.558594 0)"/>
      <use xlink:href="#DejaVuSans-75" transform="translate(458.345703 0)"/>
      <use xlink:href="#DejaVuSans-72" transform="translate(521.724609 0)"/>
      <use xlink:href="#DejaVuSans-69" transform="translate(562.837891 0)"/>
      <use xlink:href="#DejaVuSans-6e" transform="translate(590.621094 0)"/>
      <use xlink:href="#DejaVuSans-61" transform="translate(654 0)"/>
      <use xlink:href="#DejaVuSans-74" transform="translate(715.279297 0)"/>
      <use xlink:href="#DejaVuSans-69" transform="translate(754.488281 0)"/>
      <use xlink:href="#DejaVuSans-6f" transform="translate(782.271484 0)"/>
      <use xlink:href="#DejaVuSans-6e" transform="translate(843.453125 0)"/>
     </g>
    </g>
   </g>
   <g id="text_6">
    <g id="patch_22">
     <path d="M 489.924339 290.171247 
L 522.883099 252.447197 
Q 524.856924 250.18799 522.597717 248.214166 
L 515.309421 241.846525 
Q 513.050214 239.8727 511.07639 242.131907 
L 478.117629 279.855956 
Q 476.143804 282.115163 478.403011 284.088988 
L 485.691307 290.456629 
Q 487.950514 292.430454 489.924339 290.171247 
z
" clip-path="url(#pf3e7aa6eff)" style="fill: #ffffff; stroke: #ffffff; stroke-linejoin: miter"/>
    </g>
    <g clip-path="url(#pf3e7aa6eff)">
     <!-- blood test -->
     <g transform="translate(486.098983 286.829109) rotate(-48.856926) scale(0.1 -0.1)">
      <defs>
       <path id="DejaVuSans-6c" d="M 603 4863 
L 1178 4863 
L 1178 0 
L 603 0 
L 603 4863 
z
" transform="scale(0.015625)"/>
      </defs>
      <use xlink:href="#DejaVuSans-62"/>
      <use xlink:href="#DejaVuSans-6c" transform="translate(63.476562 0)"/>
      <use xlink:href="#DejaVuSans-6f" transform="translate(91.259766 0)"/>
      <use xlink:href="#DejaVuSans-6f" transform="translate(152.441406 0)"/>
      <use xlink:href="#DejaVuSans-64" transform="translate(213.623047 0)"/>
      <use xlink:href="#DejaVuSans-20" transform="translate(277.099609 0)"/>
      <use xlink:href="#DejaVuSans-74" transform="translate(308.886719 0)"/>
      <use xlink:href="#DejaVuSans-65" transform="translate(348.095703 0)"/>
      <use xlink:href="#DejaVuSans-73" transform="translate(409.619141 0)"/>
      <use xlink:href="#DejaVuSans-74" transform="translate(461.71875 0)"/>
     </g>
    </g>
   </g>
   <g id="text_7">
    <g id="patch_23">
     <path d="M 492.116106 287.662586 
L 520.691331 254.955858 
Q 522.665156 252.696651 520.405949 250.722827 
L 513.117653 244.355186 
Q 510.858446 242.381361 508.884622 244.640568 
L 480.309397 277.347295 
Q 478.335572 279.606502 480.594779 281.580327 
L 487.883075 287.947968 
Q 490.142282 289.921792 492.116106 287.662586 
z
" clip-path="url(#pf3e7aa6eff)" style="fill: #ffffff; stroke: #ffffff; stroke-linejoin: miter"/>
    </g>
    <g clip-path="url(#pf3e7aa6eff)">
     <!-- ECG test -->
     <g transform="translate(488.290751 284.320448) rotate(-48.856926) scale(0.1 -0.1)">
      <defs>
       <path id="DejaVuSans-45" d="M 628 4666 
L 3578 4666 
L 3578 4134 
L 1259 4134 
L 1259 2753 
L 3481 2753 
L 3481 2222 
L 1259 2222 
L 1259 531 
L 3634 531 
L 3634 0 
L 628 0 
L 628 4666 
z
" transform="scale(0.015625)"/>
       <path id="DejaVuSans-43" d="M 4122 4306 
L 4122 3641 
Q 3803 3938 3442 4084 
Q 3081 4231 2675 4231 
Q 1875 4231 1450 3742 
Q 1025 3253 1025 2328 
Q 1025 1406 1450 917 
Q 1875 428 2675 428 
Q 3081 428 3442 575 
Q 3803 722 4122 1019 
L 4122 359 
Q 3791 134 3420 21 
Q 3050 -91 2638 -91 
Q 1578 -91 968 557 
Q 359 1206 359 2328 
Q 359 3453 968 4101 
Q 1578 4750 2638 4750 
Q 3056 4750 3426 4639 
Q 3797 4528 4122 4306 
z
" transform="scale(0.015625)"/>
       <path id="DejaVuSans-47" d="M 3809 666 
L 3809 1919 
L 2778 1919 
L 2778 2438 
L 4434 2438 
L 4434 434 
Q 4069 175 3628 42 
Q 3188 -91 2688 -91 
Q 1594 -91 976 548 
Q 359 1188 359 2328 
Q 359 3472 976 4111 
Q 1594 4750 2688 4750 
Q 3144 4750 3555 4637 
Q 3966 4525 4313 4306 
L 4313 3634 
Q 3963 3931 3569 4081 
Q 3175 4231 2741 4231 
Q 1884 4231 1454 3753 
Q 1025 3275 1025 2328 
Q 1025 1384 1454 906 
Q 1884 428 2741 428 
Q 3075 428 3337 486 
Q 3600 544 3809 666 
z
" transform="scale(0.015625)"/>
      </defs>
      <use xlink:href="#DejaVuSans-45"/>
      <use xlink:href="#DejaVuSans-43" transform="translate(63.183594 0)"/>
      <use xlink:href="#DejaVuSans-47" transform="translate(133.007812 0)"/>
      <use xlink:href="#DejaVuSans-20" transform="translate(210.498047 0)"/>
      <use xlink:href="#DejaVuSans-74" transform="translate(242.285156 0)"/>
      <use xlink:href="#DejaVuSans-65" transform="translate(281.494141 0)"/>
      <use xlink:href="#DejaVuSans-73" transform="translate(343.017578 0)"/>
      <use xlink:href="#DejaVuSans-74" transform="translate(395.117188 0)"/>
     </g>
    </g>
   </g>
   <g id="text_8">
    <g id="patch_24">
     <path d="M 283.180118 161.294143 
L 316.345959 131.037312 
Q 318.562248 129.015416 316.540352 126.799127 
L 310.017631 119.649287 
Q 307.995735 117.432998 305.779446 119.454894 
L 272.613606 149.711724 
Q 270.397317 151.73362 272.419213 153.949909 
L 278.941933 161.09975 
Q 280.963829 163.316039 283.180118 161.294143 
z
" clip-path="url(#pf3e7aa6eff)" style="fill: #ffffff; stroke: #ffffff; stroke-linejoin: miter"/>
    </g>
    <g clip-path="url(#pf3e7aa6eff)">
     <!-- John Doe -->
     <g transform="translate(279.756585 157.541458) rotate(-42.373853) scale(0.1 -0.1)">
      <defs>
       <path id="DejaVuSans-4a" d="M 628 4666 
L 1259 4666 
L 1259 325 
Q 1259 -519 939 -900 
Q 619 -1281 -91 -1281 
L -331 -1281 
L -331 -750 
L -134 -750 
Q 284 -750 456 -515 
Q 628 -281 628 325 
L 628 4666 
z
" transform="scale(0.015625)"/>
      </defs>
      <use xlink:href="#DejaVuSans-4a"/>
      <use xlink:href="#DejaVuSans-6f" transform="translate(29.492188 0)"/>
      <use xlink:href="#DejaVuSans-68" transform="translate(90.673828 0)"/>
      <use xlink:href="#DejaVuSans-6e" transform="translate(154.052734 0)"/>
      <use xlink:href="#DejaVuSans-20" transform="translate(217.431641 0)"/>
      <use xlink:href="#DejaVuSans-44" transform="translate(249.21875 0)"/>
      <use xlink:href="#DejaVuSans-6f" transform="translate(326.220703 0)"/>
      <use xlink:href="#DejaVuSans-65" transform="translate(387.402344 0)"/>
     </g>
    </g>
   </g>
   <g id="text_9">
    <g id="patch_25">
     <path d="M 126.117764 289.246984 
L 167.260384 258.885012 
Q 169.674252 257.103653 167.892893 254.689785 
L 162.146153 246.902546 
Q 160.364794 244.488678 157.950926 246.270037 
L 116.808306 276.63201 
Q 114.394438 278.413369 116.175797 280.827237 
L 121.922537 288.614476 
Q 123.703896 291.028344 126.117764 289.246984 
z
" clip-path="url(#pf3e7aa6eff)" style="fill: #ffffff; stroke: #ffffff; stroke-linejoin: miter"/>
    </g>
    <g clip-path="url(#pf3e7aa6eff)">
     <!-- Metformin -->
     <g transform="translate(123.101515 285.159753) rotate(-36.426171) scale(0.1 -0.1)">
      <defs>
       <path id="DejaVuSans-4d" d="M 628 4666 
L 1569 4666 
L 2759 1491 
L 3956 4666 
L 4897 4666 
L 4897 0 
L 4281 0 
L 4281 4097 
L 3078 897 
L 2444 897 
L 1241 4097 
L 1241 0 
L 628 0 
L 628 4666 
z
" transform="scale(0.015625)"/>
       <path id="DejaVuSans-6d" d="M 3328 2828 
Q 3544 3216 3844 3400 
Q 4144 3584 4550 3584 
Q 5097 3584 5394 3201 
Q 5691 2819 5691 2113 
L 5691 0 
L 5113 0 
L 5113 2094 
Q 5113 2597 4934 2840 
Q 4756 3084 4391 3084 
Q 3944 3084 3684 2787 
Q 3425 2491 3425 1978 
L 3425 0 
L 2847 0 
L 2847 2094 
Q 2847 2600 2669 2842 
Q 2491 3084 2119 3084 
Q 1678 3084 1418 2786 
Q 1159 2488 1159 1978 
L 1159 0 
L 581 0 
L 581 3500 
L 1159 3500 
L 1159 2956 
Q 1356 3278 1631 3431 
Q 1906 3584 2284 3584 
Q 2666 3584 2933 3390 
Q 3200 3197 3328 2828 
z
" transform="scale(0.015625)"/>
      </defs>
      <use xlink:href="#DejaVuSans-4d"/>
      <use xlink:href="#DejaVuSans-65" transform="translate(86.279297 0)"/>
      <use xlink:href="#DejaVuSans-74" transform="translate(147.802734 0)"/>
      <use xlink:href="#DejaVuSans-66" transform="translate(187.011719 0)"/>
      <use xlink:href="#DejaVuSans-6f" transform="translate(222.216797 0)"/>
      <use xlink:href="#DejaVuSans-72" transform="translate(283.398438 0)"/>
      <use xlink:href="#DejaVuSans-6d" transform="translate(322.761719 0)"/>
      <use xlink:href="#DejaVuSans-69" transform="translate(420.173828 0)"/>
      <use xlink:href="#DejaVuSans-6e" transform="translate(447.957031 0)"/>
     </g>
    </g>
   </g>
   <g id="text_10">
    <g id="patch_26">
     <path d="M 128.661755 287.369598 
L 164.716394 260.762398 
Q 167.130262 258.981038 165.348902 256.56717 
L 159.602162 248.779932 
Q 157.820803 246.366064 155.406935 248.147423 
L 119.352296 274.754624 
Q 116.938428 276.535983 118.719788 278.949851 
L 124.466528 286.73709 
Q 126.247887 289.150958 128.661755 287.369598 
z
" clip-path="url(#pf3e7aa6eff)" style="fill: #ffffff; stroke: #ffffff; stroke-linejoin: miter"/>
    </g>
    <g clip-path="url(#pf3e7aa6eff)">
     <!-- Lisinopril -->
     <g transform="translate(125.645505 283.282367) rotate(-36.426171) scale(0.1 -0.1)">
      <defs>
       <path id="DejaVuSans-4c" d="M 628 4666 
L 1259 4666 
L 1259 531 
L 3531 531 
L 3531 0 
L 628 0 
L 628 4666 
z
" transform="scale(0.015625)"/>
      </defs>
      <use xlink:href="#DejaVuSans-4c"/>
      <use xlink:href="#DejaVuSans-69" transform="translate(55.712891 0)"/>
      <use xlink:href="#DejaVuSans-73" transform="translate(83.496094 0)"/>
      <use xlink:href="#DejaVuSans-69" transform="translate(135.595703 0)"/>
      <use xlink:href="#DejaVuSans-6e" transform="translate(163.378906 0)"/>
      <use xlink:href="#DejaVuSans-6f" transform="translate(226.757812 0)"/>
      <use xlink:href="#DejaVuSans-70" transform="translate(287.939453 0)"/>
      <use xlink:href="#DejaVuSans-72" transform="translate(351.416016 0)"/>
      <use xlink:href="#DejaVuSans-69" transform="translate(392.529297 0)"/>
      <use xlink:href="#DejaVuSans-6c" transform="translate(420.3125 0)"/>
     </g>
    </g>
   </g>
   <g id="text_11">
    <g id="patch_27">
     <path d="M 726.901352 424.346112 
L 747.128048 391.968178 
Q 748.717508 389.423847 746.173177 387.834388 
L 737.96506 382.706726 
Q 735.420729 381.117266 733.83127 383.661597 
L 713.604573 416.039532 
Q 712.015113 418.583863 714.559444 420.173322 
L 722.767561 425.300984 
Q 725.311892 426.890443 726.901352 424.346112 
z
" clip-path="url(#pf3e7aa6eff)" style="fill: #ffffff; stroke: #ffffff; stroke-linejoin: miter"/>
    </g>
    <g clip-path="url(#pf3e7aa6eff)">
     <!-- Asthma -->
     <g transform="translate(722.593216 421.654794) rotate(-58.006723) scale(0.1 -0.1)">
      <defs>
       <path id="DejaVuSans-41" d="M 2188 4044 
L 1331 1722 
L 3047 1722 
L 2188 4044 
z
M 1831 4666 
L 2547 4666 
L 4325 0 
L 3669 0 
L 3244 1197 
L 1141 1197 
L 716 0 
L 50 0 
L 1831 4666 
z
" transform="scale(0.015625)"/>
      </defs>
      <use xlink:href="#DejaVuSans-41"/>
      <use xlink:href="#DejaVuSans-73" transform="translate(68.408203 0)"/>
      <use xlink:href="#DejaVuSans-74" transform="translate(120.507812 0)"/>
      <use xlink:href="#DejaVuSans-68" transform="translate(159.716797 0)"/>
      <use xlink:href="#DejaVuSans-6d" transform="translate(223.095703 0)"/>
      <use xlink:href="#DejaVuSans-61" transform="translate(320.507812 0)"/>
     </g>
    </g>
   </g>
   <g id="text_12">
    <g id="patch_28">
     <path d="M 666.374817 529.800016 
L 674.077801 626.86986 
Q 674.31512 629.860459 677.305719 629.623139 
L 686.953514 628.857538 
Q 689.944113 628.620219 689.706793 625.62962 
L 682.003809 528.559776 
Q 681.76649 525.569177 678.775892 525.806497 
L 669.128096 526.572098 
Q 666.137498 526.809417 666.374817 529.800016 
z
" clip-path="url(#pf3e7aa6eff)" style="fill: #ffffff; stroke: #ffffff; stroke-linejoin: miter"/>
    </g>
    <g clip-path="url(#pf3e7aa6eff)">
     <!-- shortness of breath -->
     <g transform="translate(671.438585 529.39818) rotate(-274.537202) scale(0.1 -0.1)">
      <use xlink:href="#DejaVuSans-73"/>
      <use xlink:href="#DejaVuSans-68" transform="translate(52.099609 0)"/>
      <use xlink:href="#DejaVuSans-6f" transform="translate(115.478516 0)"/>
      <use xlink:href="#DejaVuSans-72" transform="translate(176.660156 0)"/>
      <use xlink:href="#DejaVuSans-74" transform="translate(217.773438 0)"/>
      <use xlink:href="#DejaVuSans-6e" transform="translate(256.982422 0)"/>
      <use xlink:href="#DejaVuSans-65" transform="translate(320.361328 0)"/>
      <use xlink:href="#DejaVuSans-73" transform="translate(381.884766 0)"/>
      <use xlink:href="#DejaVuSans-73" transform="translate(433.984375 0)"/>
      <use xlink:href="#DejaVuSans-20" transform="translate(486.083984 0)"/>
      <use xlink:href="#DejaVuSans-6f" transform="translate(517.871094 0)"/>
      <use xlink:href="#DejaVuSans-66" transform="translate(579.052734 0)"/>
      <use xlink:href="#DejaVuSans-20" transform="translate(614.257812 0)"/>
      <use xlink:href="#DejaVuSans-62" transform="translate(646.044922 0)"/>
      <use xlink:href="#DejaVuSans-72" transform="translate(709.521484 0)"/>
      <use xlink:href="#DejaVuSans-65" transform="translate(748.384766 0)"/>
      <use xlink:href="#DejaVuSans-61" transform="translate(809.908203 0)"/>
      <use xlink:href="#DejaVuSans-74" transform="translate(871.1875 0)"/>
      <use xlink:href="#DejaVuSans-68" transform="translate(910.396484 0)"/>
     </g>
    </g>
   </g>
   <g id="text_13">
    <g id="patch_29">
     <path d="M 668.346173 554.642232 
L 672.106445 602.027643 
Q 672.343764 605.018242 675.334363 604.780923 
L 684.982158 604.015321 
Q 687.972757 603.778002 687.735438 600.787404 
L 683.975165 553.401993 
Q 683.737846 550.411394 680.747247 550.648713 
L 671.099452 551.414315 
Q 668.108853 551.651634 668.346173 554.642232 
z
" clip-path="url(#pf3e7aa6eff)" style="fill: #ffffff; stroke: #ffffff; stroke-linejoin: miter"/>
    </g>
    <g clip-path="url(#pf3e7aa6eff)">
     <!-- wheezing -->
     <g transform="translate(673.409941 554.240397) rotate(-274.537202) scale(0.1 -0.1)">
      <defs>
       <path id="DejaVuSans-77" d="M 269 3500 
L 844 3500 
L 1563 769 
L 2278 3500 
L 2956 3500 
L 3675 769 
L 4391 3500 
L 4966 3500 
L 4050 0 
L 3372 0 
L 2619 2869 
L 1863 0 
L 1184 0 
L 269 3500 
z
" transform="scale(0.015625)"/>
       <path id="DejaVuSans-7a" d="M 353 3500 
L 3084 3500 
L 3084 2975 
L 922 459 
L 3084 459 
L 3084 0 
L 275 0 
L 275 525 
L 2438 3041 
L 353 3041 
L 353 3500 
z
" transform="scale(0.015625)"/>
      </defs>
      <use xlink:href="#DejaVuSans-77"/>
      <use xlink:href="#DejaVuSans-68" transform="translate(81.787109 0)"/>
      <use xlink:href="#DejaVuSans-65" transform="translate(145.166016 0)"/>
      <use xlink:href="#DejaVuSans-65" transform="translate(206.689453 0)"/>
      <use xlink:href="#DejaVuSans-7a" transform="translate(268.212891 0)"/>
      <use xlink:href="#DejaVuSans-69" transform="translate(320.703125 0)"/>
      <use xlink:href="#DejaVuSans-6e" transform="translate(348.486328 0)"/>
      <use xlink:href="#DejaVuSans-67" transform="translate(411.865234 0)"/>
     </g>
    </g>
   </g>
   <g id="text_14">
    <g id="patch_30">
     <path d="M 304.029707 162.006309 
L 342.400643 117.705666 
Q 344.364764 115.438018 342.097115 113.473897 
L 334.781586 107.137562 
Q 332.513938 105.173442 330.549817 107.441091 
L 292.178881 151.741733 
Q 290.21476 154.009382 292.482409 155.973503 
L 299.797938 162.309837 
Q 302.065587 164.273958 304.029707 162.006309 
z
" clip-path="url(#pf3e7aa6eff)" style="fill: #ffffff; stroke: #ffffff; stroke-linejoin: miter"/>
    </g>
    <g clip-path="url(#pf3e7aa6eff)">
     <!-- Alice Brown -->
     <g transform="translate(300.190058 158.680603) rotate(-49.102575) scale(0.1 -0.1)">
      <defs>
       <path id="DejaVuSans-42" d="M 1259 2228 
L 1259 519 
L 2272 519 
Q 2781 519 3026 730 
Q 3272 941 3272 1375 
Q 3272 1813 3026 2020 
Q 2781 2228 2272 2228 
L 1259 2228 
z
M 1259 4147 
L 1259 2741 
L 2194 2741 
Q 2656 2741 2882 2914 
Q 3109 3088 3109 3444 
Q 3109 3797 2882 3972 
Q 2656 4147 2194 4147 
L 1259 4147 
z
M 628 4666 
L 2241 4666 
Q 2963 4666 3353 4366 
Q 3744 4066 3744 3513 
Q 3744 3084 3544 2831 
Q 3344 2578 2956 2516 
Q 3422 2416 3680 2098 
Q 3938 1781 3938 1306 
Q 3938 681 3513 340 
Q 3088 0 2303 0 
L 628 0 
L 628 4666 
z
" transform="scale(0.015625)"/>
      </defs>
      <use xlink:href="#DejaVuSans-41"/>
      <use xlink:href="#DejaVuSans-6c" transform="translate(68.408203 0)"/>
      <use xlink:href="#DejaVuSans-69" transform="translate(96.191406 0)"/>
      <use xlink:href="#DejaVuSans-63" transform="translate(123.974609 0)"/>
      <use xlink:href="#DejaVuSans-65" transform="translate(178.955078 0)"/>
      <use xlink:href="#DejaVuSans-20" transform="translate(240.478516 0)"/>
      <use xlink:href="#DejaVuSans-42" transform="translate(272.265625 0)"/>
      <use xlink:href="#DejaVuSans-72" transform="translate(340.869141 0)"/>
      <use xlink:href="#DejaVuSans-6f" transform="translate(379.732422 0)"/>
      <use xlink:href="#DejaVuSans-77" transform="translate(440.914062 0)"/>
      <use xlink:href="#DejaVuSans-6e" transform="translate(522.701172 0)"/>
     </g>
    </g>
   </g>
   <g id="text_15">
    <g id="patch_31">
     <path d="M 154.189158 277.842321 
L 183.700818 259.735849 
Q 186.2579 258.166986 184.689038 255.609904 
L 179.627821 247.36065 
Q 178.058959 244.803567 175.501876 246.37243 
L 145.990216 264.478903 
Q 143.433134 266.047765 145.001997 268.604848 
L 150.063213 276.854102 
Q 151.632076 279.411184 154.189158 277.842321 
z
" clip-path="url(#pf3e7aa6eff)" style="fill: #ffffff; stroke: #ffffff; stroke-linejoin: miter"/>
    </g>
    <g clip-path="url(#pf3e7aa6eff)">
     <!-- inhaler -->
     <g transform="translate(151.532714 273.512595) rotate(-31.530624) scale(0.1 -0.1)">
      <use xlink:href="#DejaVuSans-69"/>
      <use xlink:href="#DejaVuSans-6e" transform="translate(27.783203 0)"/>
      <use xlink:href="#DejaVuSans-68" transform="translate(91.162109 0)"/>
      <use xlink:href="#DejaVuSans-61" transform="translate(154.541016 0)"/>
      <use xlink:href="#DejaVuSans-6c" transform="translate(215.820312 0)"/>
      <use xlink:href="#DejaVuSans-65" transform="translate(243.603516 0)"/>
      <use xlink:href="#DejaVuSans-72" transform="translate(305.126953 0)"/>
     </g>
    </g>
   </g>
   <g id="PathCollection_1">
    <defs>
     <path id="m0012d96f65" d="M 0 22.36068 
C 5.930122 22.36068 11.618159 20.004617 15.811388 15.811388 
C 20.004617 11.618159 22.36068 5.930122 22.36068 0 
C 22.36068 -5.930122 20.004617 -11.618159 15.811388 -15.811388 
C 11.618159 -20.004617 5.930122 -22.36068 0 -22.36068 
C -5.930122 -22.36068 -11.618159 -20.004617 -15.811388 -15.811388 
C -20.004617 -11.618159 -22.36068 -5.930122 -22.36068 0 
C -22.36068 5.930122 -20.004617 11.618159 -15.811388 15.811388 
C -11.618159 20.004617 -5.930122 22.36068 0 22.36068 
z
" style="stroke: #87ceeb"/>
    </defs>
    <g clip-path="url(#pf3e7aa6eff)">
     <use xlink:href="#m0012d96f65" x="372.993035" y="412.094346" style="fill: #87ceeb; stroke: #87ceeb"/>
     <use xlink:href="#m0012d96f65" x="300.854893" y="582.368382" style="fill: #87ceeb; stroke: #87ceeb"/>
     <use xlink:href="#m0012d96f65" x="167.847606" y="604.785629" style="fill: #87ceeb; stroke: #87ceeb"/>
     <use xlink:href="#m0012d96f65" x="628.005888" y="120.210874" style="fill: #87ceeb; stroke: #87ceeb"/>
     <use xlink:href="#m0012d96f65" x="209.0966" y="218.268655" style="fill: #87ceeb; stroke: #87ceeb"/>
     <use xlink:href="#m0012d96f65" x="379.864108" y="62.479339" style="fill: #87ceeb; stroke: #87ceeb"/>
     <use xlink:href="#m0012d96f65" x="74.975207" y="317.246067" style="fill: #87ceeb; stroke: #87ceeb"/>
     <use xlink:href="#m0012d96f65" x="671.707288" y="497.90243" style="fill: #87ceeb; stroke: #87ceeb"/>
     <use xlink:href="#m0012d96f65" x="789.024793" y="310.106145" style="fill: #87ceeb; stroke: #87ceeb"/>
     <use xlink:href="#m0012d96f65" x="684.373803" y="657.520661" style="fill: #87ceeb; stroke: #87ceeb"/>
     <use xlink:href="#m0012d96f65" x="254.713796" y="206.969931" style="fill: #87ceeb; stroke: #87ceeb"/>
    </g>
   </g>
   <g id="text_16">
    <g clip-path="url(#pf3e7aa6eff)">
     <!-- John Doe -->
     <g transform="translate(347.861003 414.853721) scale(0.1 -0.1)">
      <defs>
       <path id="DejaVuSans-Bold-4a" d="M 588 4666 
L 1791 4666 
L 1791 453 
Q 1791 -419 1317 -850 
Q 844 -1281 -116 -1281 
L -359 -1281 
L -359 -372 
L -172 -372 
Q 203 -372 395 -162 
Q 588 47 588 453 
L 588 4666 
z
" transform="scale(0.015625)"/>
       <path id="DejaVuSans-Bold-6f" d="M 2203 2784 
Q 1831 2784 1636 2517 
Q 1441 2250 1441 1747 
Q 1441 1244 1636 976 
Q 1831 709 2203 709 
Q 2569 709 2762 976 
Q 2956 1244 2956 1747 
Q 2956 2250 2762 2517 
Q 2569 2784 2203 2784 
z
M 2203 3584 
Q 3106 3584 3614 3096 
Q 4122 2609 4122 1747 
Q 4122 884 3614 396 
Q 3106 -91 2203 -91 
Q 1297 -91 786 396 
Q 275 884 275 1747 
Q 275 2609 786 3096 
Q 1297 3584 2203 3584 
z
" transform="scale(0.015625)"/>
       <path id="DejaVuSans-Bold-68" d="M 4056 2131 
L 4056 0 
L 2931 0 
L 2931 347 
L 2931 1625 
Q 2931 2084 2911 2256 
Q 2891 2428 2841 2509 
Q 2775 2619 2662 2680 
Q 2550 2741 2406 2741 
Q 2056 2741 1856 2470 
Q 1656 2200 1656 1722 
L 1656 0 
L 538 0 
L 538 4863 
L 1656 4863 
L 1656 2988 
Q 1909 3294 2193 3439 
Q 2478 3584 2822 3584 
Q 3428 3584 3742 3212 
Q 4056 2841 4056 2131 
z
" transform="scale(0.015625)"/>
       <path id="DejaVuSans-Bold-6e" d="M 4056 2131 
L 4056 0 
L 2931 0 
L 2931 347 
L 2931 1631 
Q 2931 2084 2911 2256 
Q 2891 2428 2841 2509 
Q 2775 2619 2662 2680 
Q 2550 2741 2406 2741 
Q 2056 2741 1856 2470 
Q 1656 2200 1656 1722 
L 1656 0 
L 538 0 
L 538 3500 
L 1656 3500 
L 1656 2988 
Q 1909 3294 2193 3439 
Q 2478 3584 2822 3584 
Q 3428 3584 3742 3212 
Q 4056 2841 4056 2131 
z
" transform="scale(0.015625)"/>
       <path id="DejaVuSans-Bold-20" transform="scale(0.015625)"/>
       <path id="DejaVuSans-Bold-44" d="M 1791 3756 
L 1791 909 
L 2222 909 
Q 2959 909 3348 1275 
Q 3738 1641 3738 2338 
Q 3738 3031 3350 3393 
Q 2963 3756 2222 3756 
L 1791 3756 
z
M 588 4666 
L 1856 4666 
Q 2919 4666 3439 4514 
Q 3959 4363 4331 4000 
Q 4659 3684 4818 3271 
Q 4978 2859 4978 2338 
Q 4978 1809 4818 1395 
Q 4659 981 4331 666 
Q 3956 303 3431 151 
Q 2906 0 1856 0 
L 588 0 
L 588 4666 
z
" transform="scale(0.015625)"/>
       <path id="DejaVuSans-Bold-65" d="M 4031 1759 
L 4031 1441 
L 1416 1441 
Q 1456 1047 1700 850 
Q 1944 653 2381 653 
Q 2734 653 3104 758 
Q 3475 863 3866 1075 
L 3866 213 
Q 3469 63 3072 -14 
Q 2675 -91 2278 -91 
Q 1328 -91 801 392 
Q 275 875 275 1747 
Q 275 2603 792 3093 
Q 1309 3584 2216 3584 
Q 3041 3584 3536 3087 
Q 4031 2591 4031 1759 
z
M 2881 2131 
Q 2881 2450 2695 2645 
Q 2509 2841 2209 2841 
Q 1884 2841 1681 2658 
Q 1478 2475 1428 2131 
L 2881 2131 
z
" transform="scale(0.015625)"/>
      </defs>
      <use xlink:href="#DejaVuSans-Bold-4a"/>
      <use xlink:href="#DejaVuSans-Bold-6f" transform="translate(37.207031 0)"/>
      <use xlink:href="#DejaVuSans-Bold-68" transform="translate(105.908203 0)"/>
      <use xlink:href="#DejaVuSans-Bold-6e" transform="translate(177.099609 0)"/>
      <use xlink:href="#DejaVuSans-Bold-20" transform="translate(248.291016 0)"/>
      <use xlink:href="#DejaVuSans-Bold-44" transform="translate(283.105469 0)"/>
      <use xlink:href="#DejaVuSans-Bold-6f" transform="translate(366.113281 0)"/>
      <use xlink:href="#DejaVuSans-Bold-65" transform="translate(434.814453 0)"/>
     </g>
    </g>
   </g>
   <g id="text_17">
    <g clip-path="url(#pf3e7aa6eff)">
     <!-- has been diagnosed with -->
     <g transform="translate(230.333018 585.088695) scale(0.1 -0.1)">
      <defs>
       <path id="DejaVuSans-Bold-61" d="M 2106 1575 
Q 1756 1575 1579 1456 
Q 1403 1338 1403 1106 
Q 1403 894 1545 773 
Q 1688 653 1941 653 
Q 2256 653 2472 879 
Q 2688 1106 2688 1447 
L 2688 1575 
L 2106 1575 
z
M 3816 1997 
L 3816 0 
L 2688 0 
L 2688 519 
Q 2463 200 2181 54 
Q 1900 -91 1497 -91 
Q 953 -91 614 226 
Q 275 544 275 1050 
Q 275 1666 698 1953 
Q 1122 2241 2028 2241 
L 2688 2241 
L 2688 2328 
Q 2688 2594 2478 2717 
Q 2269 2841 1825 2841 
Q 1466 2841 1156 2769 
Q 847 2697 581 2553 
L 581 3406 
Q 941 3494 1303 3539 
Q 1666 3584 2028 3584 
Q 2975 3584 3395 3211 
Q 3816 2838 3816 1997 
z
" transform="scale(0.015625)"/>
       <path id="DejaVuSans-Bold-73" d="M 3272 3391 
L 3272 2541 
Q 2913 2691 2578 2766 
Q 2244 2841 1947 2841 
Q 1628 2841 1473 2761 
Q 1319 2681 1319 2516 
Q 1319 2381 1436 2309 
Q 1553 2238 1856 2203 
L 2053 2175 
Q 2913 2066 3209 1816 
Q 3506 1566 3506 1031 
Q 3506 472 3093 190 
Q 2681 -91 1863 -91 
Q 1516 -91 1145 -36 
Q 775 19 384 128 
L 384 978 
Q 719 816 1070 734 
Q 1422 653 1784 653 
Q 2113 653 2278 743 
Q 2444 834 2444 1013 
Q 2444 1163 2330 1236 
Q 2216 1309 1875 1350 
L 1678 1375 
Q 931 1469 631 1722 
Q 331 1975 331 2491 
Q 331 3047 712 3315 
Q 1094 3584 1881 3584 
Q 2191 3584 2531 3537 
Q 2872 3491 3272 3391 
z
" transform="scale(0.015625)"/>
       <path id="DejaVuSans-Bold-62" d="M 2400 722 
Q 2759 722 2948 984 
Q 3138 1247 3138 1747 
Q 3138 2247 2948 2509 
Q 2759 2772 2400 2772 
Q 2041 2772 1848 2508 
Q 1656 2244 1656 1747 
Q 1656 1250 1848 986 
Q 2041 722 2400 722 
z
M 1656 2988 
Q 1888 3294 2169 3439 
Q 2450 3584 2816 3584 
Q 3463 3584 3878 3070 
Q 4294 2556 4294 1747 
Q 4294 938 3878 423 
Q 3463 -91 2816 -91 
Q 2450 -91 2169 54 
Q 1888 200 1656 506 
L 1656 0 
L 538 0 
L 538 4863 
L 1656 4863 
L 1656 2988 
z
" transform="scale(0.015625)"/>
       <path id="DejaVuSans-Bold-64" d="M 2919 2988 
L 2919 4863 
L 4044 4863 
L 4044 0 
L 2919 0 
L 2919 506 
Q 2688 197 2409 53 
Q 2131 -91 1766 -91 
Q 1119 -91 703 423 
Q 288 938 288 1747 
Q 288 2556 703 3070 
Q 1119 3584 1766 3584 
Q 2128 3584 2408 3439 
Q 2688 3294 2919 2988 
z
M 2181 722 
Q 2541 722 2730 984 
Q 2919 1247 2919 1747 
Q 2919 2247 2730 2509 
Q 2541 2772 2181 2772 
Q 1825 2772 1636 2509 
Q 1447 2247 1447 1747 
Q 1447 1247 1636 984 
Q 1825 722 2181 722 
z
" transform="scale(0.015625)"/>
       <path id="DejaVuSans-Bold-69" d="M 538 3500 
L 1656 3500 
L 1656 0 
L 538 0 
L 538 3500 
z
M 538 4863 
L 1656 4863 
L 1656 3950 
L 538 3950 
L 538 4863 
z
" transform="scale(0.015625)"/>
       <path id="DejaVuSans-Bold-67" d="M 2919 594 
Q 2688 288 2409 144 
Q 2131 0 1766 0 
Q 1125 0 706 504 
Q 288 1009 288 1791 
Q 288 2575 706 3076 
Q 1125 3578 1766 3578 
Q 2131 3578 2409 3434 
Q 2688 3291 2919 2981 
L 2919 3500 
L 4044 3500 
L 4044 353 
Q 4044 -491 3511 -936 
Q 2978 -1381 1966 -1381 
Q 1638 -1381 1331 -1331 
Q 1025 -1281 716 -1178 
L 716 -306 
Q 1009 -475 1290 -558 
Q 1572 -641 1856 -641 
Q 2406 -641 2662 -400 
Q 2919 -159 2919 353 
L 2919 594 
z
M 2181 2772 
Q 1834 2772 1640 2515 
Q 1447 2259 1447 1791 
Q 1447 1309 1634 1061 
Q 1822 813 2181 813 
Q 2531 813 2725 1069 
Q 2919 1325 2919 1791 
Q 2919 2259 2725 2515 
Q 2531 2772 2181 2772 
z
" transform="scale(0.015625)"/>
       <path id="DejaVuSans-Bold-77" d="M 225 3500 
L 1313 3500 
L 1900 1088 
L 2491 3500 
L 3425 3500 
L 4013 1113 
L 4603 3500 
L 5691 3500 
L 4769 0 
L 3547 0 
L 2956 2406 
L 2369 0 
L 1147 0 
L 225 3500 
z
" transform="scale(0.015625)"/>
       <path id="DejaVuSans-Bold-74" d="M 1759 4494 
L 1759 3500 
L 2913 3500 
L 2913 2700 
L 1759 2700 
L 1759 1216 
Q 1759 972 1856 886 
Q 1953 800 2241 800 
L 2816 800 
L 2816 0 
L 1856 0 
Q 1194 0 917 276 
Q 641 553 641 1216 
L 641 2700 
L 84 2700 
L 84 3500 
L 641 3500 
L 641 4494 
L 1759 4494 
z
" transform="scale(0.015625)"/>
      </defs>
      <use xlink:href="#DejaVuSans-Bold-68"/>
      <use xlink:href="#DejaVuSans-Bold-61" transform="translate(71.191406 0)"/>
      <use xlink:href="#DejaVuSans-Bold-73" transform="translate(138.671875 0)"/>
      <use xlink:href="#DejaVuSans-Bold-20" transform="translate(198.193359 0)"/>
      <use xlink:href="#DejaVuSans-Bold-62" transform="translate(233.007812 0)"/>
      <use xlink:href="#DejaVuSans-Bold-65" transform="translate(304.589844 0)"/>
      <use xlink:href="#DejaVuSans-Bold-65" transform="translate(372.412109 0)"/>
      <use xlink:href="#DejaVuSans-Bold-6e" transform="translate(440.234375 0)"/>
      <use xlink:href="#DejaVuSans-Bold-20" transform="translate(511.425781 0)"/>
      <use xlink:href="#DejaVuSans-Bold-64" transform="translate(546.240234 0)"/>
      <use xlink:href="#DejaVuSans-Bold-69" transform="translate(617.822266 0)"/>
      <use xlink:href="#DejaVuSans-Bold-61" transform="translate(652.099609 0)"/>
      <use xlink:href="#DejaVuSans-Bold-67" transform="translate(719.580078 0)"/>
      <use xlink:href="#DejaVuSans-Bold-6e" transform="translate(791.162109 0)"/>
      <use xlink:href="#DejaVuSans-Bold-6f" transform="translate(862.353516 0)"/>
      <use xlink:href="#DejaVuSans-Bold-73" transform="translate(931.054688 0)"/>
      <use xlink:href="#DejaVuSans-Bold-65" transform="translate(990.576172 0)"/>
      <use xlink:href="#DejaVuSans-Bold-64" transform="translate(1058.398438 0)"/>
      <use xlink:href="#DejaVuSans-Bold-20" transform="translate(1129.980469 0)"/>
      <use xlink:href="#DejaVuSans-Bold-77" transform="translate(1164.794922 0)"/>
      <use xlink:href="#DejaVuSans-Bold-69" transform="translate(1257.177734 0)"/>
      <use xlink:href="#DejaVuSans-Bold-74" transform="translate(1291.455078 0)"/>
      <use xlink:href="#DejaVuSans-Bold-68" transform="translate(1339.257812 0)"/>
     </g>
    </g>
   </g>
   <g id="text_18">
    <g clip-path="url(#pf3e7aa6eff)">
     <!-- experiences symptoms such as -->
     <g transform="translate(80.133544 607.505942) scale(0.1 -0.1)">
      <defs>
       <path id="DejaVuSans-Bold-78" d="M 1422 1791 
L 159 3500 
L 1344 3500 
L 2059 2463 
L 2784 3500 
L 3969 3500 
L 2706 1797 
L 4031 0 
L 2847 0 
L 2059 1106 
L 1281 0 
L 97 0 
L 1422 1791 
z
" transform="scale(0.015625)"/>
       <path id="DejaVuSans-Bold-70" d="M 1656 506 
L 1656 -1331 
L 538 -1331 
L 538 3500 
L 1656 3500 
L 1656 2988 
Q 1888 3294 2169 3439 
Q 2450 3584 2816 3584 
Q 3463 3584 3878 3070 
Q 4294 2556 4294 1747 
Q 4294 938 3878 423 
Q 3463 -91 2816 -91 
Q 2450 -91 2169 54 
Q 1888 200 1656 506 
z
M 2400 2772 
Q 2041 2772 1848 2508 
Q 1656 2244 1656 1747 
Q 1656 1250 1848 986 
Q 2041 722 2400 722 
Q 2759 722 2948 984 
Q 3138 1247 3138 1747 
Q 3138 2247 2948 2509 
Q 2759 2772 2400 2772 
z
" transform="scale(0.015625)"/>
       <path id="DejaVuSans-Bold-72" d="M 3138 2547 
Q 2991 2616 2845 2648 
Q 2700 2681 2553 2681 
Q 2122 2681 1889 2404 
Q 1656 2128 1656 1613 
L 1656 0 
L 538 0 
L 538 3500 
L 1656 3500 
L 1656 2925 
Q 1872 3269 2151 3426 
Q 2431 3584 2822 3584 
Q 2878 3584 2943 3579 
Q 3009 3575 3134 3559 
L 3138 2547 
z
" transform="scale(0.015625)"/>
       <path id="DejaVuSans-Bold-63" d="M 3366 3391 
L 3366 2478 
Q 3138 2634 2908 2709 
Q 2678 2784 2431 2784 
Q 1963 2784 1702 2511 
Q 1441 2238 1441 1747 
Q 1441 1256 1702 982 
Q 1963 709 2431 709 
Q 2694 709 2930 787 
Q 3166 866 3366 1019 
L 3366 103 
Q 3103 6 2833 -42 
Q 2563 -91 2291 -91 
Q 1344 -91 809 395 
Q 275 881 275 1747 
Q 275 2613 809 3098 
Q 1344 3584 2291 3584 
Q 2566 3584 2833 3536 
Q 3100 3488 3366 3391 
z
" transform="scale(0.015625)"/>
       <path id="DejaVuSans-Bold-79" d="M 78 3500 
L 1197 3500 
L 2138 1125 
L 2938 3500 
L 4056 3500 
L 2584 -331 
Q 2363 -916 2067 -1148 
Q 1772 -1381 1288 -1381 
L 641 -1381 
L 641 -647 
L 991 -647 
Q 1275 -647 1404 -556 
Q 1534 -466 1606 -231 
L 1638 -134 
L 78 3500 
z
" transform="scale(0.015625)"/>
       <path id="DejaVuSans-Bold-6d" d="M 3781 2919 
Q 3994 3244 4286 3414 
Q 4578 3584 4928 3584 
Q 5531 3584 5847 3212 
Q 6163 2841 6163 2131 
L 6163 0 
L 5038 0 
L 5038 1825 
Q 5041 1866 5042 1909 
Q 5044 1953 5044 2034 
Q 5044 2406 4934 2573 
Q 4825 2741 4581 2741 
Q 4263 2741 4089 2478 
Q 3916 2216 3909 1719 
L 3909 0 
L 2784 0 
L 2784 1825 
Q 2784 2406 2684 2573 
Q 2584 2741 2328 2741 
Q 2006 2741 1831 2477 
Q 1656 2213 1656 1722 
L 1656 0 
L 531 0 
L 531 3500 
L 1656 3500 
L 1656 2988 
Q 1863 3284 2130 3434 
Q 2397 3584 2719 3584 
Q 3081 3584 3359 3409 
Q 3638 3234 3781 2919 
z
" transform="scale(0.015625)"/>
       <path id="DejaVuSans-Bold-75" d="M 500 1363 
L 500 3500 
L 1625 3500 
L 1625 3150 
Q 1625 2866 1622 2436 
Q 1619 2006 1619 1863 
Q 1619 1441 1641 1255 
Q 1663 1069 1716 984 
Q 1784 875 1895 815 
Q 2006 756 2150 756 
Q 2500 756 2700 1025 
Q 2900 1294 2900 1772 
L 2900 3500 
L 4019 3500 
L 4019 0 
L 2900 0 
L 2900 506 
Q 2647 200 2364 54 
Q 2081 -91 1741 -91 
Q 1134 -91 817 281 
Q 500 653 500 1363 
z
" transform="scale(0.015625)"/>
      </defs>
      <use xlink:href="#DejaVuSans-Bold-65"/>
      <use xlink:href="#DejaVuSans-Bold-78" transform="translate(67.822266 0)"/>
      <use xlink:href="#DejaVuSans-Bold-70" transform="translate(132.324219 0)"/>
      <use xlink:href="#DejaVuSans-Bold-65" transform="translate(203.90625 0)"/>
      <use xlink:href="#DejaVuSans-Bold-72" transform="translate(271.728516 0)"/>
      <use xlink:href="#DejaVuSans-Bold-69" transform="translate(321.044922 0)"/>
      <use xlink:href="#DejaVuSans-Bold-65" transform="translate(355.322266 0)"/>
      <use xlink:href="#DejaVuSans-Bold-6e" transform="translate(423.144531 0)"/>
      <use xlink:href="#DejaVuSans-Bold-63" transform="translate(494.335938 0)"/>
      <use xlink:href="#DejaVuSans-Bold-65" transform="translate(553.613281 0)"/>
      <use xlink:href="#DejaVuSans-Bold-73" transform="translate(621.435547 0)"/>
      <use xlink:href="#DejaVuSans-Bold-20" transform="translate(680.957031 0)"/>
      <use xlink:href="#DejaVuSans-Bold-73" transform="translate(715.771484 0)"/>
      <use xlink:href="#DejaVuSans-Bold-79" transform="translate(775.292969 0)"/>
      <use xlink:href="#DejaVuSans-Bold-6d" transform="translate(840.478516 0)"/>
      <use xlink:href="#DejaVuSans-Bold-70" transform="translate(944.677734 0)"/>
      <use xlink:href="#DejaVuSans-Bold-74" transform="translate(1016.259766 0)"/>
      <use xlink:href="#DejaVuSans-Bold-6f" transform="translate(1064.0625 0)"/>
      <use xlink:href="#DejaVuSans-Bold-6d" transform="translate(1132.763672 0)"/>
      <use xlink:href="#DejaVuSans-Bold-73" transform="translate(1236.962891 0)"/>
      <use xlink:href="#DejaVuSans-Bold-20" transform="translate(1296.484375 0)"/>
      <use xlink:href="#DejaVuSans-Bold-73" transform="translate(1331.298828 0)"/>
      <use xlink:href="#DejaVuSans-Bold-75" transform="translate(1390.820312 0)"/>
      <use xlink:href="#DejaVuSans-Bold-63" transform="translate(1462.011719 0)"/>
      <use xlink:href="#DejaVuSans-Bold-68" transform="translate(1521.289062 0)"/>
      <use xlink:href="#DejaVuSans-Bold-20" transform="translate(1592.480469 0)"/>
      <use xlink:href="#DejaVuSans-Bold-61" transform="translate(1627.294922 0)"/>
      <use xlink:href="#DejaVuSans-Bold-73" transform="translate(1694.775391 0)"/>
     </g>
    </g>
   </g>
   <g id="text_19">
    <g clip-path="url(#pf3e7aa6eff)">
     <!-- underwent -->
     <g transform="translate(597.491045 122.970249) scale(0.1 -0.1)">
      <use xlink:href="#DejaVuSans-Bold-75"/>
      <use xlink:href="#DejaVuSans-Bold-6e" transform="translate(71.191406 0)"/>
      <use xlink:href="#DejaVuSans-Bold-64" transform="translate(142.382812 0)"/>
      <use xlink:href="#DejaVuSans-Bold-65" transform="translate(213.964844 0)"/>
      <use xlink:href="#DejaVuSans-Bold-72" transform="translate(281.787109 0)"/>
      <use xlink:href="#DejaVuSans-Bold-77" transform="translate(331.103516 0)"/>
      <use xlink:href="#DejaVuSans-Bold-65" transform="translate(423.486328 0)"/>
      <use xlink:href="#DejaVuSans-Bold-6e" transform="translate(491.308594 0)"/>
      <use xlink:href="#DejaVuSans-Bold-74" transform="translate(562.5 0)"/>
     </g>
    </g>
   </g>
   <g id="text_20">
    <g clip-path="url(#pf3e7aa6eff)">
     <!-- Dr. Smith -->
     <g transform="translate(183.078631 221.02803) scale(0.1 -0.1)">
      <defs>
       <path id="DejaVuSans-Bold-2e" d="M 653 1209 
L 1778 1209 
L 1778 0 
L 653 0 
L 653 1209 
z
" transform="scale(0.015625)"/>
       <path id="DejaVuSans-Bold-53" d="M 3834 4519 
L 3834 3531 
Q 3450 3703 3084 3790 
Q 2719 3878 2394 3878 
Q 1963 3878 1756 3759 
Q 1550 3641 1550 3391 
Q 1550 3203 1689 3098 
Q 1828 2994 2194 2919 
L 2706 2816 
Q 3484 2659 3812 2340 
Q 4141 2022 4141 1434 
Q 4141 663 3683 286 
Q 3225 -91 2284 -91 
Q 1841 -91 1394 -6 
Q 947 78 500 244 
L 500 1259 
Q 947 1022 1364 901 
Q 1781 781 2169 781 
Q 2563 781 2772 912 
Q 2981 1044 2981 1288 
Q 2981 1506 2839 1625 
Q 2697 1744 2272 1838 
L 1806 1941 
Q 1106 2091 782 2419 
Q 459 2747 459 3303 
Q 459 4000 909 4375 
Q 1359 4750 2203 4750 
Q 2588 4750 2994 4692 
Q 3400 4634 3834 4519 
z
" transform="scale(0.015625)"/>
      </defs>
      <use xlink:href="#DejaVuSans-Bold-44"/>
      <use xlink:href="#DejaVuSans-Bold-72" transform="translate(83.007812 0)"/>
      <use xlink:href="#DejaVuSans-Bold-2e" transform="translate(118.074219 0)"/>
      <use xlink:href="#DejaVuSans-Bold-20" transform="translate(156.0625 0)"/>
      <use xlink:href="#DejaVuSans-Bold-53" transform="translate(190.876953 0)"/>
      <use xlink:href="#DejaVuSans-Bold-6d" transform="translate(262.898438 0)"/>
      <use xlink:href="#DejaVuSans-Bold-69" transform="translate(367.097656 0)"/>
      <use xlink:href="#DejaVuSans-Bold-74" transform="translate(401.375 0)"/>
      <use xlink:href="#DejaVuSans-Bold-68" transform="translate(449.177734 0)"/>
     </g>
    </g>
   </g>
   <g id="text_21">
    <g clip-path="url(#pf3e7aa6eff)">
     <!-- treated -->
     <g transform="translate(358.882858 65.238714) scale(0.1 -0.1)">
      <use xlink:href="#DejaVuSans-Bold-74"/>
      <use xlink:href="#DejaVuSans-Bold-72" transform="translate(47.802734 0)"/>
      <use xlink:href="#DejaVuSans-Bold-65" transform="translate(97.119141 0)"/>
      <use xlink:href="#DejaVuSans-Bold-61" transform="translate(164.941406 0)"/>
      <use xlink:href="#DejaVuSans-Bold-74" transform="translate(232.421875 0)"/>
      <use xlink:href="#DejaVuSans-Bold-65" transform="translate(280.224609 0)"/>
      <use xlink:href="#DejaVuSans-Bold-64" transform="translate(348.046875 0)"/>
     </g>
    </g>
   </g>
   <g id="text_22">
    <g clip-path="url(#pf3e7aa6eff)">
     <!-- prescribed -->
     <g transform="translate(44.870519 320.005442) scale(0.1 -0.1)">
      <use xlink:href="#DejaVuSans-Bold-70"/>
      <use xlink:href="#DejaVuSans-Bold-72" transform="translate(71.582031 0)"/>
      <use xlink:href="#DejaVuSans-Bold-65" transform="translate(120.898438 0)"/>
      <use xlink:href="#DejaVuSans-Bold-73" transform="translate(188.720703 0)"/>
      <use xlink:href="#DejaVuSans-Bold-63" transform="translate(248.242188 0)"/>
      <use xlink:href="#DejaVuSans-Bold-72" transform="translate(307.519531 0)"/>
      <use xlink:href="#DejaVuSans-Bold-69" transform="translate(356.835938 0)"/>
      <use xlink:href="#DejaVuSans-Bold-62" transform="translate(391.113281 0)"/>
      <use xlink:href="#DejaVuSans-Bold-65" transform="translate(462.695312 0)"/>
      <use xlink:href="#DejaVuSans-Bold-64" transform="translate(530.517578 0)"/>
     </g>
    </g>
   </g>
   <g id="text_23">
    <g clip-path="url(#pf3e7aa6eff)">
     <!-- Alice Brown -->
     <g transform="translate(638.422913 500.661805) scale(0.1 -0.1)">
      <defs>
       <path id="DejaVuSans-Bold-41" d="M 3419 850 
L 1538 850 
L 1241 0 
L 31 0 
L 1759 4666 
L 3194 4666 
L 4922 0 
L 3713 0 
L 3419 850 
z
M 1838 1716 
L 3116 1716 
L 2478 3572 
L 1838 1716 
z
" transform="scale(0.015625)"/>
       <path id="DejaVuSans-Bold-6c" d="M 538 4863 
L 1656 4863 
L 1656 0 
L 538 0 
L 538 4863 
z
" transform="scale(0.015625)"/>
       <path id="DejaVuSans-Bold-42" d="M 2456 2859 
Q 2741 2859 2887 2984 
Q 3034 3109 3034 3353 
Q 3034 3594 2887 3720 
Q 2741 3847 2456 3847 
L 1791 3847 
L 1791 2859 
L 2456 2859 
z
M 2497 819 
Q 2859 819 3042 972 
Q 3225 1125 3225 1434 
Q 3225 1738 3044 1889 
Q 2863 2041 2497 2041 
L 1791 2041 
L 1791 819 
L 2497 819 
z
M 3616 2497 
Q 4003 2384 4215 2081 
Q 4428 1778 4428 1338 
Q 4428 663 3972 331 
Q 3516 0 2584 0 
L 588 0 
L 588 4666 
L 2394 4666 
Q 3366 4666 3802 4372 
Q 4238 4078 4238 3431 
Q 4238 3091 4078 2852 
Q 3919 2613 3616 2497 
z
" transform="scale(0.015625)"/>
      </defs>
      <use xlink:href="#DejaVuSans-Bold-41"/>
      <use xlink:href="#DejaVuSans-Bold-6c" transform="translate(77.392578 0)"/>
      <use xlink:href="#DejaVuSans-Bold-69" transform="translate(111.669922 0)"/>
      <use xlink:href="#DejaVuSans-Bold-63" transform="translate(145.947266 0)"/>
      <use xlink:href="#DejaVuSans-Bold-65" transform="translate(205.224609 0)"/>
      <use xlink:href="#DejaVuSans-Bold-20" transform="translate(273.046875 0)"/>
      <use xlink:href="#DejaVuSans-Bold-42" transform="translate(307.861328 0)"/>
      <use xlink:href="#DejaVuSans-Bold-72" transform="translate(384.082031 0)"/>
      <use xlink:href="#DejaVuSans-Bold-6f" transform="translate(433.398438 0)"/>
      <use xlink:href="#DejaVuSans-Bold-77" transform="translate(502.099609 0)"/>
      <use xlink:href="#DejaVuSans-Bold-6e" transform="translate(594.482422 0)"/>
     </g>
    </g>
   </g>
   <g id="text_24">
    <g clip-path="url(#pf3e7aa6eff)">
     <!-- has -->
     <g transform="translate(779.115418 312.86552) scale(0.1 -0.1)">
      <use xlink:href="#DejaVuSans-Bold-68"/>
      <use xlink:href="#DejaVuSans-Bold-61" transform="translate(71.191406 0)"/>
      <use xlink:href="#DejaVuSans-Bold-73" transform="translate(138.671875 0)"/>
     </g>
    </g>
   </g>
   <g id="text_25">
    <g clip-path="url(#pf3e7aa6eff)">
     <!-- experiences -->
     <g transform="translate(650.325366 660.280036) scale(0.1 -0.1)">
      <use xlink:href="#DejaVuSans-Bold-65"/>
      <use xlink:href="#DejaVuSans-Bold-78" transform="translate(67.822266 0)"/>
      <use xlink:href="#DejaVuSans-Bold-70" transform="translate(132.324219 0)"/>
      <use xlink:href="#DejaVuSans-Bold-65" transform="translate(203.90625 0)"/>
      <use xlink:href="#DejaVuSans-Bold-72" transform="translate(271.728516 0)"/>
      <use xlink:href="#DejaVuSans-Bold-69" transform="translate(321.044922 0)"/>
      <use xlink:href="#DejaVuSans-Bold-65" transform="translate(355.322266 0)"/>
      <use xlink:href="#DejaVuSans-Bold-6e" transform="translate(423.144531 0)"/>
      <use xlink:href="#DejaVuSans-Bold-63" transform="translate(494.335938 0)"/>
      <use xlink:href="#DejaVuSans-Bold-65" transform="translate(553.613281 0)"/>
      <use xlink:href="#DejaVuSans-Bold-73" transform="translate(621.435547 0)"/>
     </g>
    </g>
   </g>
   <g id="text_26">
    <g clip-path="url(#pf3e7aa6eff)">
     <!-- Dr. Lee -->
     <g transform="translate(235.201296 209.729306) scale(0.1 -0.1)">
      <defs>
       <path id="DejaVuSans-Bold-4c" d="M 588 4666 
L 1791 4666 
L 1791 909 
L 3903 909 
L 3903 0 
L 588 0 
L 588 4666 
z
" transform="scale(0.015625)"/>
      </defs>
      <use xlink:href="#DejaVuSans-Bold-44"/>
      <use xlink:href="#DejaVuSans-Bold-72" transform="translate(83.007812 0)"/>
      <use xlink:href="#DejaVuSans-Bold-2e" transform="translate(118.074219 0)"/>
      <use xlink:href="#DejaVuSans-Bold-20" transform="translate(156.0625 0)"/>
      <use xlink:href="#DejaVuSans-Bold-4c" transform="translate(190.876953 0)"/>
      <use xlink:href="#DejaVuSans-Bold-65" transform="translate(254.597656 0)"/>
      <use xlink:href="#DejaVuSans-Bold-65" transform="translate(322.419922 0)"/>
     </g>
    </g>
   </g>
   <g id="text_27">
    <!-- Knowledge Graph from Extracted Triples -->
    <g transform="translate(310.828125 -6) scale(0.12 -0.12)">
     <defs>
      <path id="DejaVuSans-4b" d="M 628 4666 
L 1259 4666 
L 1259 2694 
L 3353 4666 
L 4166 4666 
L 1850 2491 
L 4331 0 
L 3500 0 
L 1259 2247 
L 1259 0 
L 628 0 
L 628 4666 
z
" transform="scale(0.015625)"/>
      <path id="DejaVuSans-78" d="M 3513 3500 
L 2247 1797 
L 3578 0 
L 2900 0 
L 1881 1375 
L 863 0 
L 184 0 
L 1544 1831 
L 300 3500 
L 978 3500 
L 1906 2253 
L 2834 3500 
L 3513 3500 
z
" transform="scale(0.015625)"/>
      <path id="DejaVuSans-54" d="M -19 4666 
L 3928 4666 
L 3928 4134 
L 2272 4134 
L 2272 0 
L 1638 0 
L 1638 4134 
L -19 4134 
L -19 4666 
z
" transform="scale(0.015625)"/>
     </defs>
     <use xlink:href="#DejaVuSans-4b"/>
     <use xlink:href="#DejaVuSans-6e" transform="translate(65.576172 0)"/>
     <use xlink:href="#DejaVuSans-6f" transform="translate(128.955078 0)"/>
     <use xlink:href="#DejaVuSans-77" transform="translate(190.136719 0)"/>
     <use xlink:href="#DejaVuSans-6c" transform="translate(271.923828 0)"/>
     <use xlink:href="#DejaVuSans-65" transform="translate(299.707031 0)"/>
     <use xlink:href="#DejaVuSans-64" transform="translate(361.230469 0)"/>
     <use xlink:href="#DejaVuSans-67" transform="translate(424.707031 0)"/>
     <use xlink:href="#DejaVuSans-65" transform="translate(488.183594 0)"/>
     <use xlink:href="#DejaVuSans-20" transform="translate(549.707031 0)"/>
     <use xlink:href="#DejaVuSans-47" transform="translate(581.494141 0)"/>
     <use xlink:href="#DejaVuSans-72" transform="translate(658.984375 0)"/>
     <use xlink:href="#DejaVuSans-61" transform="translate(700.097656 0)"/>
     <use xlink:href="#DejaVuSans-70" transform="translate(761.376953 0)"/>
     <use xlink:href="#DejaVuSans-68" transform="translate(824.853516 0)"/>
     <use xlink:href="#DejaVuSans-20" transform="translate(888.232422 0)"/>
     <use xlink:href="#DejaVuSans-66" transform="translate(920.019531 0)"/>
     <use xlink:href="#DejaVuSans-72" transform="translate(955.224609 0)"/>
     <use xlink:href="#DejaVuSans-6f" transform="translate(994.087891 0)"/>
     <use xlink:href="#DejaVuSans-6d" transform="translate(1055.269531 0)"/>
     <use xlink:href="#DejaVuSans-20" transform="translate(1152.681641 0)"/>
     <use xlink:href="#DejaVuSans-45" transform="translate(1184.46875 0)"/>
     <use xlink:href="#DejaVuSans-78" transform="translate(1247.652344 0)"/>
     <use xlink:href="#DejaVuSans-74" transform="translate(1306.832031 0)"/>
     <use xlink:href="#DejaVuSans-72" transform="translate(1346.041016 0)"/>
     <use xlink:href="#DejaVuSans-61" transform="translate(1387.154297 0)"/>
     <use xlink:href="#DejaVuSans-63" transform="translate(1448.433594 0)"/>
     <use xlink:href="#DejaVuSans-74" transform="translate(1503.414062 0)"/>
     <use xlink:href="#DejaVuSans-65" transform="translate(1542.623047 0)"/>
     <use xlink:href="#DejaVuSans-64" transform="translate(1604.146484 0)"/>
     <use xlink:href="#DejaVuSans-20" transform="translate(1667.623047 0)"/>
     <use xlink:href="#DejaVuSans-54" transform="translate(1699.410156 0)"/>
     <use xlink:href="#DejaVuSans-72" transform="translate(1745.744141 0)"/>
     <use xlink:href="#DejaVuSans-69" transform="translate(1786.857422 0)"/>
     <use xlink:href="#DejaVuSans-70" transform="translate(1814.640625 0)"/>
     <use xlink:href="#DejaVuSans-6c" transform="translate(1878.117188 0)"/>
     <use xlink:href="#DejaVuSans-65" transform="translate(1905.900391 0)"/>
     <use xlink:href="#DejaVuSans-73" transform="translate(1967.423828 0)"/>
    </g>
   </g>
  </g>
 </g>
 <defs>
  <clipPath id="pf3e7aa6eff">
   <rect x="0" y="0" width="864" height="720"/>
  </clipPath>
 </defs>
</svg>
